<?xml version="1.0" encoding="UTF-8" standalone="no"?>
<!-- Created with Inkscape (http://www.inkscape.org/) -->

<svg
   width="20"
   height="20"
   viewBox="0 0 5.2916666 5.2916666"
   version="1.1"
   id="svg14171"
   inkscape:version="1.2 (dc2aedaf03, 2022-05-15)"
   sodipodi:docname="settings.svg"
   xmlns:inkscape="http://www.inkscape.org/namespaces/inkscape"
   xmlns:sodipodi="http://sodipodi.sourceforge.net/DTD/sodipodi-0.dtd"
   xmlns="http://www.w3.org/2000/svg"
   xmlns:svg="http://www.w3.org/2000/svg">
  <sodipodi:namedview
     id="namedview14173"
     pagecolor="#505050"
     bordercolor="#eeeeee"
     borderopacity="1"
     inkscape:showpageshadow="0"
     inkscape:pageopacity="0"
     inkscape:pagecheckerboard="0"
     inkscape:deskcolor="#505050"
     inkscape:document-units="mm"
     showgrid="false"
     inkscape:zoom="5.6568542"
     inkscape:cx="17.500893"
     inkscape:cy="-1.0606602"
     inkscape:window-width="1366"
     inkscape:window-height="745"
     inkscape:window-x="-8"
     inkscape:window-y="-8"
     inkscape:window-maximized="1"
     inkscape:current-layer="layer1" />
  <defs
     id="defs14168" />
  <g
     inkscape:label="Camada 1"
     inkscape:groupmode="layer"
     id="layer1">
    <path
       id="path872"
       style="fill:#c3ccdf;fill-opacity:1;stroke:#333333;stroke-width:0;stroke-linecap:round;stroke-miterlimit:4;stroke-dasharray:none"
       d="m 2.6280144,2.0833545e-4 c -0.093681,6.4e-4 -0.1871997,0.006000005 -0.2801627,0.0168000046 -0.1451336,0.0165 -0.2178365,0.13291 -0.2178503,0.24943 -7.2e-6,0.28489 -0.2309488,0.51584 -0.5158328,0.51585 -0.115515,4e-5 -0.22483,-0.0385 -0.3129588,-0.10564 -0.1149232,-0.0876 -0.259497,-0.13974 -0.37070187,-0.045 -0.129624,0.11039 -0.2482938,0.23303 -0.3543526,0.36622 -0.090983,0.11425996 -0.060095,0.24800996 0.022258,0.33037996 0.2014445,0.20146 0.2014445,0.52807 0,0.72953 -0.081659,0.0816 -0.1861503,0.13165 -0.295927,0.14643 -0.1432137,0.0193 -0.2823089,0.0846 -0.2939976,0.23022 -0.00565,0.0704 -0.00847999667,0.14095 -0.00848999667,0.2116 1.38e-5,0.0997 0.00565999667,0.19924 0.01689399667,0.29816 0.016479,0.14513 0.1328666,0.21787 0.2492986,0.21786 0.284884,1e-5 0.5158255,0.23096 0.5158327,0.51585 -5e-6,0.11544 -0.038496,0.22468 -0.1056293,0.31275 -0.0876,0.11493 -0.1397345,0.25951 -0.045037,0.37072 0.1103825,0.12962 0.2330221,0.2483 0.3662066,0.35436 0.11425467,0.091 0.24799487,0.0601 0.33036447,-0.0222 0.09462,-0.0946 0.2223009,-0.14876 0.3560881,-0.151 0.1397958,-0.002 0.2745598,0.0521 0.3734297,0.151 0.081631,0.0817 0.1316434,0.18616 0.1464235,0.29594 0.019282,0.14321 0.084618,0.28231 0.2302139,0.29399 0.070406,0.006 0.1410459,0.008 0.2117494,0.008 0.099638,-1e-5 0.1991239,-0.006 0.2979864,-0.0169 0.1451323,-0.0165 0.2178695,-0.13286 0.2178472,-0.2493 7.3e-6,-0.28489 0.2309487,-0.51584 0.5158327,-0.51585 0.1154582,0 0.2247125,0.0385 0.3127998,0.10564 0.1149233,0.0876 0.259497,0.13974 0.3707018,0.045 0.1296238,-0.11039 0.2482933,-0.23303 0.3543519,-0.36622 0.090983,-0.11426 0.060095,-0.24801 -0.022258,-0.33038 -0.2014445,-0.20146 -0.2014445,-0.52807 0,-0.72953 0.09462,-0.0946 0.2223004,-0.14876 0.3560873,-0.151 0.1121038,-0.002 0.2223066,-0.08 0.2339954,-0.22564 0.00565,-0.0704 0.00849,-0.14105 0.00849,-0.21176 -2.35e-5,-0.0996 -0.00567,-0.19914 -0.016898,-0.29801 -0.016479,-0.14513 -0.13294,-0.21784 -0.2494585,-0.21786 -0.2848845,-1e-5 -0.5158266,-0.23096 -0.5158338,-0.51585 -6.1e-6,-0.11546 0.038487,-0.22471 0.10563,-0.3128 0.087601,-0.11493 0.139748,-0.25952 0.045065,-0.37073996 -0.1103899,-0.12967 -0.2330437,-0.24838 -0.3662483,-0.35448 -0.1142465,-0.091 -0.247951,-0.06 -0.3303525,0.0224 -0.2014511,0.20146 -0.5280659,0.20146 -0.729517,0 -0.081635,-0.0817 -0.1316486,-0.18616 -0.1464275,-0.29595 -0.01928,-0.14321 -0.084614,-0.28231 -0.2302099,-0.29399 -0.070354,-0.006 -0.1409399,-0.008000005 -0.2115903,-0.008000005 -0.00594,-2e-5 -0.011879,-2e-5 -0.017819,0 z M 2.6458344,1.7806983 c 0.4778543,10e-6 0.8652305,0.38739 0.8652373,0.86526 8.16e-5,0.47793 -0.3873204,0.86541 -0.8652373,0.86542 -0.477917,-1e-5 -0.8653195,-0.38749 -0.8652379,-0.86542 6.8e-6,-0.47787 0.3873834,-0.86525 0.8652379,-0.86526 z" />
  </g>
</svg>
